<svg width="322" height="227" viewBox="0 0 322 227" fill="none" xmlns="http://www.w3.org/2000/svg">
<path d="M0 33.6656L78.5546 111.099L0 188.533L34.1524 222.199L146.859 111.099L34.1524 0L0 33.6656ZM193.204 174.579V222.189H322V174.579H193.204Z" fill="#B54A4E"/>
<path d="M90.5221 226.322C110.797 226.322 126.503 220.182 137.355 207.903C145.208 198.908 149.634 187.771 151.919 176.491C156.059 181.346 162.199 184.344 169.053 184.344C181.618 184.344 191.898 174.064 191.898 161.499C191.898 148.934 181.618 138.653 169.053 138.653C163.199 138.653 157.916 140.938 153.775 144.508C153.347 137.654 152.633 131.943 152.204 128.23C152.061 126.945 151.919 125.375 151.776 124.946C151.776 124.661 151.776 124.375 151.633 124.09C149.777 109.954 100.517 109.24 90.5221 109.24C80.2418 109.24 29.4111 109.954 29.1256 124.804V124.946C29.1256 125.375 28.9828 126.803 28.6972 128.23C27.1266 141.795 21.8436 183.202 43.6894 207.903C54.5409 220.182 70.247 226.322 90.5221 226.322ZM169.053 147.22C176.906 147.22 183.331 153.646 183.331 161.499C183.331 169.352 176.906 175.777 169.053 175.777C161.2 175.777 154.774 169.352 154.774 161.499C154.774 153.646 161.2 147.22 169.053 147.22ZM90.5221 117.807C120.221 117.807 137.926 122.091 142.495 124.946C137.783 127.802 120.078 132.085 90.5221 132.085C60.9661 132.085 43.1183 127.802 38.5492 124.946C43.1183 122.091 60.8233 117.807 90.5221 117.807Z" fill="#342014"/>
<path d="M41.1191 100.102C42.2614 100.102 43.2609 99.6738 44.1176 98.8171C45.831 97.1037 45.831 94.3908 44.1176 92.8202C36.5501 85.2527 36.5501 72.8306 44.1176 65.1204C47.8299 61.408 52.6845 59.4091 57.6819 59.4091C65.9633 59.4091 72.9597 65.5487 79.8133 71.4028C89.6653 79.827 101.802 90.3929 116.366 75.8291L123.219 69.975C125.789 67.8332 129.502 67.6905 132.215 69.5466L137.64 73.259C142.352 76.4002 147.635 77.9708 153.204 77.9708H153.346C155.774 77.9708 157.63 75.9719 157.63 73.6873C157.63 71.26 155.631 69.4039 153.346 69.4039C149.491 69.4039 145.779 68.2616 142.638 66.1199L137.212 62.4075C131.358 58.4096 123.362 58.8379 117.936 63.407L110.797 69.4039C110.654 69.5466 110.654 69.5466 110.512 69.6894C101.802 78.3992 96.2333 74.2585 85.3818 64.8348C77.8143 58.2668 69.1046 50.8421 57.6819 50.8421C50.4 50.8421 43.4037 53.6978 38.1207 59.1235C27.1264 70.1178 27.1264 87.9656 38.1207 98.9599C38.9774 99.6738 39.9769 100.102 41.1191 100.102Z" fill="#342014"/>
<path d="M174.764 77.9708H189.042C191.469 77.9708 193.325 76.1146 193.325 73.6873C193.325 71.26 191.469 69.4038 189.042 69.4038H174.764C172.336 69.4038 170.48 71.26 170.48 73.6873C170.48 76.1146 172.336 77.9708 174.764 77.9708Z" fill="#342014"/>
</svg>
